<?xml version="1.0" standalone="no"?>
<!DOCTYPE svg PUBLIC "-//W3C//DTD SVG 20010904//EN"
 "http://www.w3.org/TR/2001/REC-SVG-20010904/DTD/svg10.dtd">
<svg version="1.0" xmlns="http://www.w3.org/2000/svg"
 width="700.000000pt" height="700.000000pt" viewBox="0 0 700.000000 700.000000"
 preserveAspectRatio="xMidYMid meet">
<metadata>
Created by potrace 1.14, written by Peter Selinger 2001-2017
</metadata>
<g transform="translate(0.000000,700.000000) scale(0.100000,-0.100000)"
fill="#000000" stroke="none">
<path d="M3320 6774 c-373 -32 -566 -69 -859 -166 -1096 -358 -1943 -1313
-2171 -2448 -49 -244 -63 -382 -64 -645 -1 -393 43 -679 161 -1039 364 -1118
1323 -1966 2477 -2191 225 -44 373 -58 626 -59 250 0 382 11 600 50 1183 215
2159 1070 2528 2214 111 344 156 636 156 1010 0 242 -12 377 -50 590 -159 870
-659 1633 -1394 2129 -436 294 -921 474 -1449 536 -124 15 -473 27 -561 19z
m1729 -1649 c206 -49 372 -214 426 -423 31 -123 17 -302 -34 -416 -27 -62
-1760 -3038 -1785 -3064 -77 -86 -235 -86 -312 0 -17 18 -1630 2825 -1761
3063 -96 175 -100 380 -10 550 41 76 126 168 200 216 54 35 148 72 207 82 14
2 695 5 1515 5 1297 2 1498 0 1554 -13z"/>
<path d="M2006 4691 c-43 -29 -66 -70 -66 -121 0 -42 53 -139 669 -1213 367
-642 671 -1170 675 -1174 3 -3 6 564 6 1260 l0 1267 -627 0 c-598 0 -629 -1
-657 -19z"/>
<path d="M3710 3438 c0 -751 4 -1268 9 -1262 15 15 1322 2264 1332 2293 15 39
13 125 -4 158 -8 15 -27 39 -42 53 l-27 25 -634 3 -634 2 0 -1272z"/>
</g>
</svg>
