<svg xmlns="http://www.w3.org/2000/svg" width="933.333" height="933.333" viewBox="0 0 700 700" preserveAspectRatio="xMidYMid meet"><path d="M332 22.6c-37.3 3.2-56.6 6.9-85.9 16.6C136.5 75 51.8 170.5 29 284c-4.9 24.4-6.3 38.2-6.4 64.5-.1 39.3 4.3 67.9 16.1 103.9C75.1 564.2 171 649 286.4 671.5c22.5 4.4 37.3 5.8 62.6 5.9 25 0 38.2-1.1 60-5 118.3-21.5 215.9-107 252.8-221.4 11.1-34.4 15.6-63.6 15.6-101 0-24.2-1.2-37.7-5-59-15.9-87-65.9-163.3-139.4-212.9-43.6-29.4-92.1-47.4-144.9-53.6-12.4-1.5-47.3-2.7-56.1-1.9zm172.9 164.9c20.6 4.9 37.2 21.4 42.6 42.3 3.1 12.3 1.7 30.2-3.4 41.6-2.7 6.2-176 303.8-178.5 306.4-7.7 8.6-23.5 8.6-31.2 0-1.7-1.8-163-282.5-176.1-306.3-9.6-17.5-10-38-1-55 4.1-7.6 12.6-16.8 20-21.6 5.4-3.5 14.8-7.2 20.7-8.2 1.4-.2 69.5-.5 151.5-.5l155.4 1.3zm-304.3 43.4c-4.3 2.9-6.6 7-6.6 12.1 0 4.2 5.3 13.9 66.9 121.3l67.5 117.4c.3.3.6-56.4.6-126V229h-62.7c-59.8 0-62.9.1-65.7 1.9zM371 356.2l.9 126.2c1.5-1.5 132.2-226.4 133.2-229.3 1.5-3.9 1.3-12.5-.4-15.8-.8-1.5-2.7-3.9-4.2-5.3l-2.7-2.5-63.4-.3-63.4-.2v127.2z"/></svg>